<?xml version="1.0" standalone="no"?>
<!DOCTYPE svg PUBLIC "-//W3C//DTD SVG 20010904//EN"
 "http://www.w3.org/TR/2001/REC-SVG-20010904/DTD/svg10.dtd">
<svg version="1.0" xmlns="http://www.w3.org/2000/svg"
 width="700.000000pt" height="700.000000pt" viewBox="0 0 700.000000 700.000000"
 preserveAspectRatio="xMidYMid meet">
<metadata>
Created by potrace 1.11, written by Peter Selinger 2001-2013
</metadata>
<g transform="translate(0.000000,700.000000) scale(0.100000,-0.100000)"
fill="#000000" stroke="none">
<path d="M3387 6124 c-1 -1 -43 -5 -93 -8 -50 -4 -100 -8 -111 -10 -11 -3 -44
-7 -74 -11 -30 -3 -61 -8 -69 -10 -8 -2 -31 -7 -50 -10 -112 -18 -379 -98
-490 -147 -202 -89 -291 -136 -441 -234 -146 -96 -409 -312 -409 -336 0 -10
398 -408 408 -408 5 0 17 10 28 22 65 73 300 247 434 320 121 67 396 173 495
192 17 3 62 12 100 21 106 23 202 30 395 30 221 -1 316 -12 501 -59 202 -51
434 -155 614 -274 99 -65 238 -176 284 -226 14 -14 28 -26 33 -26 11 0 408
398 408 409 0 5 -17 23 -37 41 -21 18 -58 51 -83 74 -59 55 -159 132 -243 189
-442 302 -928 454 -1470 462 -70 1 -128 0 -130 -1z"/>
<path d="M3340 4949 c-334 -43 -577 -155 -838 -385 l-35 -31 207 -207 207
-208 43 39 c149 132 338 208 539 216 229 10 429 -61 615 -216 l43 -36 205 205
206 206 -44 39 c-211 192 -486 327 -738 365 -19 2 -48 7 -65 11 -44 9 -282 10
-345 2z"/>
<path d="M1169 3498 c-5 -15 -3 -2307 2 -2318 6 -13 274 -15 2328 -14 1276 0
2324 3 2328 7 4 4 7 529 7 1167 l1 1160 -2332 0 c-1283 0 -2333 -1 -2334 -2z
m3642 -602 c3 -116 0 -699 -4 -702 -6 -7 -2607 -7 -2614 0 -4 4 -6 377 -4 646
l1 76 1310 0 1310 0 1 -20z"/>
</g>
</svg>
